<svg width="45" height="45" viewBox="0 0 420 420" fill="none" xmlns="http://www.w3.org/2000/svg">
<rect width="420" height="420" rx="48" fill="white"/>
<mask id="mask0_2035_87" style="mask-type:alpha" maskUnits="userSpaceOnUse" x="0" y="0" width="420" height="420">
<rect width="420" height="420" fill="#624E4E"/>
</mask>
<g mask="url(#mask0_2035_87)">
<path fill-rule="evenodd" clip-rule="evenodd" d="M78 149H44L78 99H420V149H188L101 325L420 375L41 325L129 149H78Z" fill="black"/>
<path d="M231.5 149L145.5 325L420 370.5L191 325L278.5 149H231.5Z" fill="black"/>
<path d="M318 149L231.5 325L419.5 362.5L284 325L372 149H318Z" fill="black"/>
<rect x="206" y="215" width="96" height="35" fill="black"/>
<mask id="path-7-inside-1_2035_87" fill="white">
<path fill-rule="evenodd" clip-rule="evenodd" d="M44 149H78H129L41 325H71.5H101L188 149H229.5L144 325H172.5H191L228.287 250H266L228.5 325H261.5H284L372 149H427V99H78L44 149ZM283.5 215L316.5 149H278.5L245.688 215H283.5Z"/>
</mask>
<path d="M44 149L40.6923 146.751C39.8591 147.976 39.7715 149.562 40.4647 150.871C41.1579 152.181 42.5182 153 44 153V149ZM129 149L132.578 150.789C133.198 149.549 133.131 148.076 132.403 146.897C131.674 145.718 130.386 145 129 145V149ZM41 325L37.4223 323.211C36.8023 324.451 36.8686 325.924 37.5974 327.103C38.3262 328.282 39.6137 329 41 329V325ZM101 325V329C102.522 329 103.912 328.137 104.586 326.773L101 325ZM188 149V145C186.478 145 185.088 145.863 184.414 147.227L188 149ZM229.5 149L233.098 150.748C233.7 149.508 233.622 148.046 232.891 146.878C232.159 145.709 230.878 145 229.5 145V149ZM144 325L140.402 323.252C139.8 324.492 139.878 325.954 140.609 327.122C141.341 328.291 142.622 329 144 329V325ZM191 325V329C192.518 329 193.906 328.14 194.582 326.781L191 325ZM228.287 250V246C226.769 246 225.381 246.86 224.705 248.219L228.287 250ZM266 250L269.578 251.789C270.198 250.549 270.131 249.076 269.403 247.897C268.674 246.718 267.386 246 266 246V250ZM228.5 325L224.922 323.211C224.302 324.451 224.369 325.924 225.097 327.103C225.826 328.282 227.114 329 228.5 329V325ZM284 325V329C285.515 329 286.9 328.144 287.578 326.789L284 325ZM372 149V145C370.485 145 369.1 145.856 368.422 147.211L372 149ZM427 149V153C429.209 153 431 151.209 431 149H427ZM427 99H431C431 96.7909 429.209 95 427 95V99ZM78 99V95C76.6756 95 75.437 95.6556 74.6923 96.7508L78 99ZM283.5 215V219C285.015 219 286.4 218.144 287.078 216.789L283.5 215ZM316.5 149L320.078 150.789C320.698 149.549 320.631 148.076 319.903 146.897C319.174 145.718 317.886 145 316.5 145V149ZM278.5 149V145C276.982 145 275.594 145.86 274.918 147.219L278.5 149ZM245.688 215L242.106 213.219C241.489 214.459 241.558 215.93 242.287 217.107C243.017 218.284 244.303 219 245.688 219V215ZM78 145H44V153H78V145ZM129 145H78V153H129V145ZM44.5777 326.789L132.578 150.789L125.422 147.211L37.4223 323.211L44.5777 326.789ZM71.5 321H41V329H71.5V321ZM101 321H71.5V329H101V321ZM184.414 147.227L97.4142 323.227L104.586 326.773L191.586 150.773L184.414 147.227ZM229.5 145H188V153H229.5V145ZM147.598 326.748L233.098 150.748L225.902 147.252L140.402 323.252L147.598 326.748ZM172.5 321H144V329H172.5V321ZM191 321H172.5V329H191V321ZM224.705 248.219L187.418 323.219L194.582 326.781L231.869 251.781L224.705 248.219ZM266 246H228.287V254H266V246ZM232.078 326.789L269.578 251.789L262.422 248.211L224.922 323.211L232.078 326.789ZM261.5 321H228.5V329H261.5V321ZM284 321H261.5V329H284V321ZM368.422 147.211L280.422 323.211L287.578 326.789L375.578 150.789L368.422 147.211ZM427 145H372V153H427V145ZM423 99V149H431V99H423ZM78 103H427V95H78V103ZM47.3077 151.249L81.3077 101.249L74.6923 96.7508L40.6923 146.751L47.3077 151.249ZM287.078 216.789L320.078 150.789L312.922 147.211L279.922 213.211L287.078 216.789ZM316.5 145H278.5V153H316.5V145ZM274.918 147.219L242.106 213.219L249.269 216.781L282.082 150.781L274.918 147.219ZM245.688 219H283.5V211H245.688V219Z" fill="white" mask="url(#path-7-inside-1_2035_87)"/>
<rect x="204" y="145" width="195" height="14" fill="white"/>
</g>
</svg>
